<svg height="512pt" viewBox="-21 0 512 512" width="512pt" xmlns="http://www.w3.org/2000/svg"><path d="m448 232.148438c-11.777344 0-21.332031-9.554688-21.332031-21.332032 0-59.839844-23.296875-116.074218-65.601563-158.402344-8.339844-8.339843-8.339844-21.820312 0-30.164062 8.339844-8.339844 21.824219-8.339844 30.164063 0 50.371093 50.367188 78.101562 117.335938 78.101562 188.566406 0 11.777344-9.554687 21.332032-21.332031 21.332032zm0 0" fill="#4caf50"/><path d="m21.332031 232.148438c-11.773437 0-21.332031-9.554688-21.332031-21.332032 0-71.230468 27.734375-138.199218 78.101562-188.566406 8.339844-8.339844 21.824219-8.339844 30.164063 0 8.34375 8.34375 8.34375 21.824219 0 30.164062-42.304687 42.304688-65.597656 98.5625-65.597656 158.402344 0 11.777344-9.558594 21.332032-21.335938 21.332032zm0 0" fill="#4caf50"/><path d="m320 426.667969c0 47.128906-38.203125 85.332031-85.332031 85.332031-47.128907 0-85.335938-38.203125-85.335938-85.332031 0-47.128907 38.207031-85.335938 85.335938-85.335938 47.128906 0 85.332031 38.207031 85.332031 85.335938zm0 0" fill="#ffa000"/><path d="m234.667969 85.332031c-11.777344 0-21.335938-9.554687-21.335938-21.332031v-42.667969c0-11.773437 9.558594-21.332031 21.335938-21.332031 11.773437 0 21.332031 9.558594 21.332031 21.332031v42.667969c0 11.777344-9.558594 21.332031-21.332031 21.332031zm0 0" fill="#ffa000"/><path d="m434.753906 360.789062c-32.257812-27.265624-50.753906-67.09375-50.753906-109.3125v-59.476562c0-82.347656-67.007812-149.332031-149.332031-149.332031-82.328125 0-149.335938 66.984375-149.335938 149.332031v59.476562c0 42.21875-18.496093 82.070313-50.941406 109.503907-8.300781 7.082031-13.058594 17.429687-13.058594 28.351562 0 20.589844 16.746094 37.335938 37.335938 37.335938h352c20.585937 0 37.332031-16.746094 37.332031-37.335938 0-10.921875-4.757812-21.269531-13.246094-28.542969zm0 0" fill="#ffc107"/></svg>